<?xml version="1.0" standalone="no"?><svg xmlns="http://www.w3.org/2000/svg" viewBox="0 0 1440 320"><path fill="#0099ff" fill-opacity="1" d="M0,64L12,85.3C24,107,48,149,72,176C96,203,120,213,144,213.3C168,213,192,203,216,218.7C240,235,264,277,288,266.7C312,256,336,192,360,186.7C384,181,408,235,432,224C456,213,480,139,504,112C528,85,552,107,576,117.3C600,128,624,128,648,154.7C672,181,696,235,720,229.3C744,224,768,160,792,138.7C816,117,840,139,864,170.7C888,203,912,245,936,266.7C960,288,984,288,1008,277.3C1032,267,1056,245,1080,240C1104,235,1128,245,1152,218.7C1176,192,1200,128,1224,122.7C1248,117,1272,171,1296,192C1320,213,1344,203,1368,170.7C1392,139,1416,85,1428,58.7L1440,32L1440,320L1428,320C1416,320,1392,320,1368,320C1344,320,1320,320,1296,320C1272,320,1248,320,1224,320C1200,320,1176,320,1152,320C1128,320,1104,320,1080,320C1056,320,1032,320,1008,320C984,320,960,320,936,320C912,320,888,320,864,320C840,320,816,320,792,320C768,320,744,320,720,320C696,320,672,320,648,320C624,320,600,320,576,320C552,320,528,320,504,320C480,320,456,320,432,320C408,320,384,320,360,320C336,320,312,320,288,320C264,320,240,320,216,320C192,320,168,320,144,320C120,320,96,320,72,320C48,320,24,320,12,320L0,320Z"></path></svg>